<?xml version="1.0" encoding="UTF-8"?><svg id="_图层_1" xmlns="http://www.w3.org/2000/svg" viewBox="0 0 424.71 563.5"><defs><style>.cls-1{fill:#000;}.cls-1,.cls-2{stroke-width:0px;}.cls-2{fill:#fff;}.cls-3{fill:none;stroke:#000;stroke-linecap:round;stroke-linejoin:round;stroke-width:.25px;}</style></defs><path class="cls-1" d="M24.15,238.56l1.02-.34.51-.51v-.17l-.34-1.18c-3.04-5.41-5.92-9.3-8.29-11.34-3.05-2.71-5.75-3.04-7.95-1.52-4.06,2.37-6.77,11.16-8.29,26.56l-.16.85v.51c-1.19,7.27-.68,15.22,1.18,23.34l.17.34c2.03,9.3,6.6,20.3,13.36,32.81h0c2.54,6.94,3.38,12.69,2.71,17.42v.17c-.68,11.34,2.37,20.13,8.8,26.56l.51.17v.17c4.4,2.03,8.12,1.86,10.83-.85,2.54-2.37,4.4-6.94,5.41-13.7l-.34-1.01h0l-.85-.51-1.02.17-.51.85c-.85,5.92-2.37,9.98-4.57,12.35v-.17c-2.03,1.86-4.57,1.86-7.78.5-5.76-5.92-8.46-14.04-7.95-24.19v-.34c.85-4.91,0-11.16-2.71-18.44l-.17-.34c-6.59-12.52-10.99-23.34-13.02-32.31l-.17-.51c-2.03-7.95-2.37-15.56-1.01-22.67l-.17-.51c1.35-14.38,3.89-22.67,7.11-24.87h0c1.35-.85,3.04-.34,4.91,1.19,2.37,2.03,5.07,5.58,7.95,10.83h-.17l.68.5.34.17Z"/><path class="cls-1" d="M25.84,253.11l-.17-.34-3.04-5.58c-2.03-3.56-3.89-6.26-5.58-7.95-3.05-2.87-5.41-3.89-7.78-2.87l-.34.17-.34.34-.17.34c-3.55,8.96-4.23,20.64-1.69,35.18v.17l.51,3.55.68,1.01v-.17l.85.34,1.01-.68h-.17l.34-.85v-.17l-.68-3.55v-.17l.17-.51,1.35-12.69c.51-6.43,2.37-11.84,5.41-16.24l2.87,3.72c-1.35.51-2.54,1.69-3.38,3.56-1.35,2.37-2.37,6.26-3.05,11.5v.51c1.02,4.91,1.86,7.95,3.05,8.96h0c1.02,1.19,2.03,1.19,3.21.17.51-.51,1.19-1.35,1.69-3.05v-.51c.34-6.77,1.52-10.82,3.21-12.01l2.2,5.08.67.68h1.02l.85-.68v-1.02l-2.71-6.26ZM8.08,258.36v.17l-.17.51c-.34-7.78.68-14.55,2.88-20.3,1.01,0,2.2.5,3.55,1.69-3.55,4.9-5.58,10.82-6.26,17.93ZM18.06,251.08c.68-1.52,1.52-2.2,2.54-2.2l2.03,3.89c-2.71,1.35-4.23,6.26-4.57,14.38l-.68,1.35c-.67-1.19-1.35-3.55-2.03-7.11.67-4.73,1.52-8.12,2.71-10.32Z"/><path class="cls-1" d="M32.1,280.18l.17.17c-2.03-3.05-4.06-4.4-6.6-4.23-2.2.17-4.73,1.86-7.27,5.07l-.34.51c-3.55,9.3-2.71,16.58,2.54,21.82,4.73,7.61,7.44,13.03,8.63,16.41l.17.17.51.51.68.34.51-.34h.34l.34-.51h0c2.2-5.75.85-13.36-4.06-23.34-.34-5.41-.17-9.14.85-10.83l.85-.67,2.37,1.69v-.17c.17.34.51.51,1.02.51h0l.85-.51.34-1.01-.34-.85c-1.69-1.52-2.88-2.2-3.89-2.37-1.52-.17-2.71.51-3.56,2.03-1.18,2.03-1.52,6.09-1.18,12.52v.67c3.55,6.6,5.25,12.35,5.07,17.09l-7.44-13.2c-4.4-4.56-5.25-10.82-2.2-18.78h0c2.03-2.54,3.89-3.72,5.41-4.06,1.52,0,2.71.85,4.06,2.87l.85.68,1.01-.34v.17l.68-.85v-.17l-.34-1.01Z"/><path class="cls-1" d="M400.69,238.56l-1.01-.34-.51-.51-.17-.17.34-1.18c3.21-5.41,5.92-9.3,8.46-11.34,2.87-2.71,5.58-3.04,7.95-1.52,3.89,2.37,6.77,11.16,8.29,26.56v1.35c1.18,7.27.85,15.22-1.19,23.34l-.17.34c-2.03,9.3-6.43,20.3-13.19,32.81h0c-2.54,6.94-3.56,12.69-2.71,17.42v.17c.68,11.34-2.37,20.13-8.96,26.56l-.34.17-.17.17c-4.4,2.03-7.95,1.86-10.83-.84-2.54-2.37-4.4-6.94-5.24-13.7l.34-1.01h-.17l1.02-.51.85.17.67.85c.85,5.92,2.37,9.98,4.4,12.35v-.17c2.03,1.86,4.57,1.86,7.78.5,5.75-5.92,8.46-14.04,7.95-24.19v-.34c-.85-4.91.17-11.16,2.88-18.44l.17-.34c6.6-12.52,10.83-23.34,12.86-32.31l.34-.51c2.03-7.95,2.2-15.56,1.02-22.67v-.51c-1.35-14.38-3.72-22.67-7.11-24.87h.17c-1.35-.85-3.21-.34-4.9,1.19-2.37,2.03-5.07,5.58-7.95,10.83h.17l-.85.5-.17.17Z"/><path class="cls-1" d="M398.99,253.11l.17-.34,3.05-5.58c2.03-3.56,3.72-6.26,5.58-7.95,2.87-2.87,5.41-3.89,7.78-2.87l.34.17.34.34.17.34c3.55,8.96,4.06,20.64,1.69,35.18v.17l-.68,3.55-.51,1.01v-.17l-1.02.34-.85-.68h0l-.34-.85v-.17l.68-3.55.17-.17-.34-.51-1.18-12.69c-.68-6.43-2.54-11.84-5.41-16.24l-2.88,3.72c1.35.51,2.37,1.69,3.38,3.56,1.19,2.37,2.2,6.26,2.88,11.5v.51c-.85,4.91-1.86,7.95-2.88,8.96h0c-1.18,1.19-2.2,1.19-3.22.17-.5-.51-1.18-1.35-1.69-3.05l-.17-.34v-.17c-.34-6.77-1.35-10.82-3.04-12.01l-2.37,5.08-.68.68h-1.01l-.84-.68v-1.02l2.87-6.26ZM416.76,258.36v.68c.34-7.78-.5-14.55-2.71-20.3-1.01,0-2.2.5-3.72,1.69,3.55,4.9,5.58,10.82,6.43,17.93ZM406.78,251.08c-.85-1.52-1.69-2.2-2.54-2.2l-2.03,3.89c2.54,1.35,4.06,6.26,4.57,14.38l.68,1.35c.51-1.19,1.19-3.55,2.03-7.11-.68-4.73-1.52-8.12-2.71-10.32Z"/><path class="cls-1" d="M392.57,280.18v.17c1.86-3.05,4.06-4.4,6.43-4.23,2.37.17,4.74,1.86,7.44,5.07l.34.51c3.55,9.3,2.71,16.58-2.71,21.82-4.57,7.61-7.44,13.03-8.46,16.41l-.17.17-.51.51-.67.34-.68-.34h-.17l-.51-.51h0c-2.03-5.75-.68-13.36,4.23-23.34.34-5.41.17-9.14-.85-10.83l-.85-.67-2.54,1.69v-.17c-.17.34-.51.51-.85.51h-.17l-.68-.51-.51-1.01.51-.85c1.52-1.52,2.87-2.2,3.89-2.37,1.35-.17,2.54.51,3.38,2.03,1.18,2.03,1.69,6.09,1.35,12.52v.34l-.17.34c-3.55,6.6-5.08,12.35-5.08,17.09l7.61-13.2c4.4-4.56,5.07-10.82,2.03-18.78h0c-2.03-2.54-3.72-3.72-5.41-4.06-1.35,0-2.71.85-4.06,2.87l-.85.68-1.01-.34v.17l-.51-.85v-.17l.17-1.01Z"/><polyline class="cls-3" points="403.22 143.84 403.39 144.18 403.05 142.32 403.22 143.84"/><path class="cls-3" d="M20.26,148.57v.34l-.51,2.03-1.01,12.01c-.51,19.79,1.86,44.15,7.27,73.41l5.08,22.5c8.12,39.25,13.7,78.66,16.74,118.24l.34.51v1.52c6.6,41.95,25.71,76.46,57.68,103.18l3.55,2.87c8.63,6.93,18.1,13.02,28.59,18.94l22.5,11.17,4.23,1.35c16.23,4.57,31.97,6.6,47.02,6.26,15.22.34,30.78-1.69,47.36-6.26l3.89-1.35,11.67-5.25,11.16-5.92c10.32-5.92,19.62-12.01,28.25-18.94l1.69-1.18v-.17c24.86-20.13,42.12-44.83,52.1-73.75l3.05-9.81h.17l4.23-17.09-.5,2.03.67-1.86,2.03-18.1v-.17l9.3-71.38v-.17l1.52-8.96v-.17l.67-3.38h-.17l9.47-44.66c6.43-35.52,8.46-64.11,5.92-85.93v-.34l-1.01-6.26"/><line class="cls-3" x1="20.26" y1="148.57" x2="19.41" y2="148.57"/><path class="cls-3" d="M403.22,143.84l-1.01-5.07-.51-1.18v-.17l-11.84-35.02c-22.16-46.69-61.74-77.64-118.75-93.2-7.44-2.03-15.06-3.89-22.84-5.24h-.17l-8.63-1.52c-18.27-2.54-36.37-2.54-54.47-.17l-9.47,1.69h-.34c-7.78,1.35-15.22,3.21-22.5,5.24h-.17c-55.82,15.22-94.89,45.17-117.06,89.99l-3.72,7.61-.17.67-.51,1.02-1.02,2.71-.17-.17-1.52,3.72.34-.17-2.2,7.1c-2.88,8.63-4.91,17.59-6.26,26.9"/><path class="cls-2" d="M162.96,555.95c0,.43-.26.98-1.85,1.26-.08-.73-.71-.94-1.66-1.22-.14-.04-.2-.12-.2-.24.02-.1.08-.14.18-.14h.06c.75.1,1.3.16,1.69.16.53,0,.77-.08.77-.5v-15.12h-14.92l-.14-.63h15.06l.45-.55.79.65c.16.13.27.26.27.43s-.1.29-.27.34c-.14.06-.22.16-.22.24v15.32ZM157.01,543.08l1.28-1.07,1.3.97c.1.06.16.18.16.33,0,.26-.21.39-.47.39h-11.18l-.16-.61h9.07ZM149.34,545.64l.99.69h6.11l.55-.55.93.61c.08.04.12.13.12.2,0,.1-.08.29-.33.34-.16.04-.26.15-.26.22v5.89c.02.12-.08.25-.2.3-.63.16-.79.21-.79-.3v-1.34h-6.11v2.05c0,.08-.08.18-.25.26-.65.16-.77.18-.77-.31v-8.08ZM150.36,546.96v4.14h6.11v-4.14h-6.11Z"/><path class="cls-2" d="M168.72,551.93c.18,0,.18.06.18.59,0,2.15-.81,3.8-1.56,3.8-.37,0-.41-.14-.57-.59,0-.12.16-.31.43-.53.73-.71,1.36-1.62,1.36-3.11,0-.1.06-.16.16-.16ZM170.41,549.8v1.18c0,.25-.18.29-.81.45-.14,0-.2-.14-.2-.45v-12.24l1.01.85h9.85l1.26-1.05,1.22.92c.14.12.22.27.22.38,0,.24-.18.39-.41.39h-6.11v2.56h2.8l1.24-1.07,1.24.91c.12.12.2.26.2.38,0,.15-.08.39-.41.39h-5.07v2.72h2.72l1.24-1.08,1.24.92c.12.12.2.26.2.38,0,.14-.08.39-.4.39h-5v2.47h6.33l.43-.65.85.53c.25.1.32.26.32.42,0,.19-.08.41-.34.43-.18.02-.3.12-.3.24-.04,1.14-.16,2.21-.3,3.2-.26,1.61-.53,3.21-2.76,3.86-.14-.75-.69-1.1-1.87-1.42-.12-.04-.18-.13-.18-.23s.08-.21.2-.21c.04,0,.06.02.1.02.91.28,1.58.43,1.99.43.39-.15.75-.39,1.01-.73.28-.34.47-1.14.55-2.35l.16-2.48.06-.47h-12.28ZM175.42,542.78v-2.58h-5.01v2.58h5.01ZM175.42,546.11v-2.74h-5.01v2.74h5.01ZM170.41,546.7v2.49h5.01v-2.49h-5.01ZM171.49,552.05s-.06-.08-.06-.12c0-.06.06-.16.18-.16.34,0,1.38,1.95,1.38,3.08,0,.47-.31.79-.57.79-.37,0-.49-.34-.49-.55.04-.28.06-.57.06-.83,0-.32-.02-1.46-.51-2.21ZM175.87,554.47c-.08-1.22-.55-2.23-1.02-2.7-.04-.04-.08-.1-.08-.14,0-.1.1-.18.2-.18.41,0,1.91,1.99,1.91,2.7,0,.34-.14.77-.45.77-.39,0-.57-.29-.57-.45ZM180.62,553.62c-.08.3-.39.3-.45.3-.2,0-.41-.12-.47-.32-.38-1.24-1.14-2.13-1.54-2.36-.08-.04-.12-.1-.12-.16s.06-.2.2-.2c.37,0,2.09,1.32,2.38,2.19v.55Z"/><path class="cls-2" d="M187.32,540.4l1.02.85h.81c.35-.85.59-1.77.67-2.68l1.1.2c.25.04.36.14.36.28,0,.26-.18.33-.26.33-.16.02-.28.08-.33.16-.28.53-.63,1.12-1.07,1.7h2.43l.55-.55.93.61c.06.04.1.11.1.18,0,.19-.12.32-.3.36-.16.04-.27.13-.24.22v5.58c0,.28-.47.4-.71.4-.2,0-.3-.14-.3-.4v-1.2h-3.73v3.13h3.96l.52-.57.94.61c.08.04.12.12.12.2,0,.1-.1.29-.3.35-.16.04-.26.14-.24.25v5.97c0,.24-.43.4-.71.4-.2,0-.3-.14-.3-.4v-1.2h-3.98v1.56c0,.26-.24.32-.81.47-.14,0-.21-.16-.21-.47v-16.36ZM188.34,545.86h3.73v-3.98h-3.73v3.98ZM188.34,554.59h3.98v-4.38h-3.98v4.38ZM195.18,543.02l.93.77h2.86v-3.65h-4.4l-.14-.63h8.1s1.28-1.06,1.28-1.06l1.3.98c.1.04.17.16.17.3,0,.26-.2.4-.47.4h-4.81v3.65h2.94l.47-.55.79.65c.16.12.26.27.26.43s-.1.28-.26.34c-.16.06-.25.16-.25.25v9.05c0,.59-.47,1.02-1.85,1.26l-.16-.57c-.08-.18-.45-.41-1.01-.65-.14-.04-.21-.12-.21-.22.02-.1.08-.14.19-.14.18,0,1.24.14,1.48.14.27,0,.55,0,.55-.51v-8.85h-2.94v12.65c0,.22-.49.37-.77.37-.16,0-.25-.12-.25-.37v-12.65h-2.8v10.84c0,.24-.14.28-.81.44-.12,0-.18-.16-.18-.44v-12.24Z"/><path class="cls-2" d="M217.56,544.99c0,.53-.53,1.14-1.12,1.14s-1.14-.55-1.14-1.14c0-.42.3-1.14,1.14-1.14.43,0,1.12.43,1.12,1.14ZM217.56,550.23c0,.43-.43,1.12-1.12,1.12s-1.14-.61-1.14-1.12.36-1.14,1.14-1.14c.39,0,1.12.38,1.12,1.14Z"/><path class="cls-2" d="M230.05,548.46h-2.72l-.16-.61h2.88v-3.04h-1.71l-.12-.53-.79.75s-.08.04-.12.04c-.1,0-.18-.13-.18-.18,0-.04.02-.08.06-.12.77-.79,1.44-1.77,1.99-2.82.71-1.34,1.04-2.25,1.12-3.47l1.14.21c.24.04.37.16.37.32,0,.22-.14.28-.32.28.61.43,1.93,1.71,2.13,2.54v.53c-.04.2-.22.32-.43.32-.24,0-.41-.14-.49-.36-.22-.75-.55-1.4-.91-1.93l-.59-.75c-.45,1.16-1.46,3.07-2.91,4.57h2.74l1.12-1.09,1.06.97c.1.08.14.2.14.32,0,.22-.2.41-.43.41h-1.85v3.04h.67l1.12-1.1,1.06.97c.1.08.14.18.14.3,0,.18-.16.43-.43.43h-2.56v6.11c1.03-.36,2.09-.83,3.11-1.4.04-.04.08-.04.12-.04.14,0,.2.16.2.24,0,.06-.02.14-.1.19-2.31,1.68-4.81,2.49-5.79,2.76-.08.04-.14.16-.14.37-.02.26-.18.38-.32.38s-.29-.14-.39-.42l-.47-1.3,1.01-.06,1.75-.43v-6.39ZM227.75,549.98s-.04-.08-.04-.12c0-.11.12-.17.18-.17.37,0,1.2,1.91,1.2,3.08,0,.79-.39.97-.61.97-.34,0-.45-.35-.45-.61.08-.42.12-.83.12-1.22,0-1.24-.3-1.78-.41-1.95ZM232.55,549.94l1.08.36c.16.06.25.15.25.22,0,.04-.06.22-.25.22l-.2.1-.52,1.24c-.19.35-.69,1.28-.9,1.28-.14,0-.2-.16-.16-.26l.51-1.3.2-1.18v-.69ZM233.42,543.69l-.14-.61h3.45v-1.77h-2.44l-.14-.61h2.58v-2.11l1.03.18c.32.04.46.17.46.33s-.1.29-.26.33c-.17.04-.24.16-.24.3v.97h1.03l.99-.93.9.81c.1.08.14.2.14.32,0,.22-.2.4-.43.4h-2.64v1.77h3.67v-4.33l1.2.23c.22.04.35.14.35.3s-.12.27-.26.29c-.16.04-.25.1-.25.18l-.04,3.33h1.24l1.12-1.09,1.05.97c.1.08.14.21.14.32,0,.18-.14.41-.43.41h-3.1c.02,1.93.18,4.83.57,6.78.49-1.24.87-2.46,1.12-3.56l.22-.73,1.01.51c.22.1.32.24.32.37,0,.14-.14.34-.32.34l-.32-.02c-.79,2.92-1.65,4.61-1.65,4.63.3,1.08.63,1.87.91,2.32.26.43.47.67.57.67.06,0,.19-.17.33-.47l.55-1.34c.02-.08.06-.12.14-.12.16,0,.22.12.2.29l-.37,1.95c-.02.12-.02.24-.02.34,0,.26.04.49.12.65l.06.43c0,.08,0,.32-.47.32-.12,0-.26-.02-.41-.08-.67-.47-1.7-1.91-2.31-3.8-1.71,2.62-4.53,3.96-4.77,3.96-.12,0-.2-.12-.2-.2,0-.06.04-.13.1-.15.75-.34,3.23-2.19,4.51-4.75-.75-2.9-.87-5.97-.89-8.34h-8ZM238.51,549.52l.65-.65c-.3,0-.3-.1-.3-.81h-3.11c0,.57,0,.65-.24.73-.65.16-.77.18-.77-.3v-4.1l.77.53h3.35l.45-.69.83.57c.1.08.14.22.14.34-.02.12-.1.24-.2.26-.12.06-.2.14-.2.22v2.82c0,.14-.08.26-.24.33l.77.63c.1.08.14.18.14.3,0,.2-.16.43-.41.43h-2.41v1.68h.65l.97-.93.9.81c.1.08.14.2.14.32,0,.22-.21.41-.41.41h-2.27v1.7l2.68-.67c.14-.04.28,0,.28.17s-.08.29-.24.36c-.79.41-1.72.75-2.72,1.04l-2.64.75c-.06.02-.1.08-.1.18l.02.22c0,.25-.22.25-.3.25-.2,0-.36-.12-.47-.43l-.46-1.09c.95-.1,1.97-.27,2.98-.51v-1.97h-2.11l-.16-.61h2.27v-1.68h-2.36l-.16-.61h4.3ZM235.75,545.52v1.93h3.11v-1.93h-3.11ZM244.24,541.54c-.18-.75-.61-1.52-.97-1.76-.06-.02-.08-.08-.08-.15,0-.06.04-.16.14-.16.3,0,1.52,1.06,1.69,1.67,0,.4,0,.71-.27.71l-.33-.06-.18-.24Z"/><path class="cls-2" d="M254.39,539.91l1.26-1.07,1.24.92c.12.12.2.26.2.4,0,.37-.34.37-.41.37h-2.9c.69.53,1.16.9,1.16,1.42,0,.28-.12.53-.29.55-.41,0-.55,0-.65-.3-.18-.59-.49-1.3-1.09-1.66h-2.07l-.97,1.07c-1.03,1.06-2.07,1.67-2.23,1.67-.14,0-.16-.14-.16-.18,0-.06.02-.1.06-.14,1.54-1.14,2.66-2.72,3.23-4.54l1.08.43c.2.08.3.2.3.35,0,.12-.1.28-.3.28-.16,0-.26.02-.28.08l-.26.38h3.11ZM248.01,547.59l-.16-.61h2.66l-.12-.24c-.02-.2-.08-1.12-.59-1.62-.06-.04-.08-.1-.08-.17,0-.06.06-.16.18-.16.37,0,1.48,1.22,1.48,1.56l-.14.63h2.03c.35-.71.59-1.44.71-2.19l1.06.33c.22.06.32.18.32.3,0,.2-.12.3-.29.3s-.28.06-.34.14l-.97,1.12h1.03l1.14-1.1,1.06.97c.08.08.12.18.12.3s-.08.43-.41.43h-8.69ZM248.5,544.34l-.16-.63h3.45v-1.72l1.04.2c.32.04.46.16.46.33s-.1.28-.26.33c-.22.06-.22.14-.22.87h1.69l1.12-1.08,1.05.97c.1.06.14.18.14.3,0,.2-.16.43-.43.43h-7.88ZM249.25,548.5l.77.53h4.38l.45-.55.79.65c.16.12.27.26.27.43,0,.14-.1.28-.27.35-.16.06-.24.16-.24.24v5.97c0,.73-.79,1.05-1.83,1.24-.22-.61-.24-.69-1.01-.95-.16-.04-.22-.12-.22-.25s.1-.17.22-.17c1.56,0,1.85-.06,1.85-.57v-1.25h-4.14v2.76c0,.32-.63.38-.75.38-.18,0-.26-.12-.26-.43v-8.38ZM250.27,549.64v1.62h4.14v-1.62h-4.14ZM250.27,551.87v1.69h4.14v-1.69h-4.14ZM263.42,539.91l1.26-1.07,1.24.92c.14.12.22.28.22.4,0,.24-.2.37-.43.37h-4.08l.63.53c.45.41.73.79.81,1.07,0,.65,0,.85-.45.85-.22,0-.41-.16-.47-.33-.32-1.21-1.03-1.97-1.28-2.13h-2.01l-.63.71c-.91.91-1.74,1.4-1.91,1.4-.1,0-.14-.1-.14-.2,0-.04,0-.08.04-.12.57-.43,1.08-1,1.52-1.62.81-1.2.89-1.52,1.05-2.29l1.1.41c.21.06.3.18.3.32,0,.02,0,.31-.3.31-.16,0-.26.02-.28.08l-.24.4h4.04ZM257.82,547.1l.83.51h5.26v-1.38h-4.85c0,.63,0,.71-.26.77-.65.1-.75.12-.75-.27v-4.51l1.05.14c.37.04.51.16.51.37,0,.18-.12.32-.29.34-.26.04-.26.08-.26.57h4.47l1.14-1.09,1.04.97c.1.08.14.18.14.3,0,.2-.16.43-.41.43h-6.37v1.36h4.85l.47-.69.81.57c.12.08.16.22.16.35-.02.12-.1.24-.22.28-.12.06-.2.12-.2.2v2.19c0,.24-.08.26-.75.45-.26,0-.26-.27-.26-.75h-5.1v1.69h3.86l1.14-.9.99.73c.14.13.22.28.22.41,0,.24-.19.36-.41.36h-5.81v1.54h3.61l1.14-.9,1.01.73c.12.12.21.27.21.38,0,.15-.08.39-.41.39h-5.56v1.52h3.53l1.14-.89,1.02.73c.14.12.2.26.2.39,0,.26-.16.38-.41.38h-5.48v1.06c0,.26.04.28.28.38h5.38c.18,0,.36-.2.53-.63l.51-1.34c.02-.12.08-.16.18-.16s.16.08.14.22v1.12c0,.39.04.65.16.73.12.06.19.16.19.27,0,.26-.24.79-.75.79h-6.92c-.3,0-.69-.24-.69-.98v-9.15Z"/><path class="cls-2" d="M276.76,538.6l1.05.18c.33.04.45.17.45.33s-.08.29-.24.33c-.16.04-.24.16-.24.3v15.08h6.05v-12.36l1.14.17c.3.04.47.16.47.3,0,.16-.1.33-.3.41-.18.08-.28.22-.28.37v13.33c0,.32-.65.45-.79.45s-.22-.06-.22-.18v-1.85h-12.95v1.58c0,.32-.65.45-.79.45s-.22-.06-.22-.18v-14.84l1.14.17c.32.04.47.16.47.3,0,.16-.08.33-.28.41-.2.08-.3.22-.3.37v11.12h5.89v-16.21Z"/></svg>